<svg xmlns="http://www.w3.org/2000/svg" width="1928" height="928" class="svgbob"><style>.svgbob line, .svgbob path, .svgbob circle, .svgbob rect, .svgbob polygon {
    stroke: black;
    stroke-width: 2;
    stroke-opacity: 1;
    fill-opacity: 1;
    stroke-linecap: round;
    stroke-linejoin: miter;
}
.svgbob text {
    white-space: pre;
    fill: black;
    font-family: Iosevka Fixed, monospace;
    font-size: 14px;
}
.svgbob rect.backdrop {
    stroke: none;
    fill: white;
}
.svgbob .broken {
    stroke-dasharray: 8;
}
.svgbob .filled {
    fill: black;
}
.svgbob .bg_filled {
    fill: white;
    stroke-width: 1;
}
.svgbob .nofill {
    fill: white;
}
.svgbob .end_marked_arrow {
    marker-end: url(#arrow);
}
.svgbob .start_marked_arrow {
    marker-start: url(#arrow);
}
.svgbob .end_marked_diamond {
    marker-end: url(#diamond);
}
.svgbob .start_marked_diamond {
    marker-start: url(#diamond);
}
.svgbob .end_marked_circle {
    marker-end: url(#circle);
}
.svgbob .start_marked_circle {
    marker-start: url(#circle);
}
.svgbob .end_marked_open_circle {
    marker-end: url(#open_circle);
}
.svgbob .start_marked_open_circle {
    marker-start: url(#open_circle);
}
.svgbob .end_marked_big_open_circle {
    marker-end: url(#big_open_circle);
}
.svgbob .start_marked_big_open_circle {
    marker-start: url(#big_open_circle);
}<!--separator--></style><defs><marker id="arrow" viewBox="-2 -2 8 8" refX="4" refY="2" markerWidth="7" markerHeight="7" orient="auto-start-reverse"><polygon points="0,0 0,4 4,2 0,0"></polygon></marker><marker id="diamond" viewBox="-2 -2 8 8" refX="4" refY="2" markerWidth="7" markerHeight="7" orient="auto-start-reverse"><polygon points="0,2 2,0 4,2 2,4 0,2"></polygon></marker><marker id="circle" viewBox="0 0 8 8" refX="4" refY="4" markerWidth="7" markerHeight="7" orient="auto-start-reverse"><circle cx="4" cy="4" r="2" class="filled"></circle></marker><marker id="open_circle" viewBox="0 0 8 8" refX="4" refY="4" markerWidth="7" markerHeight="7" orient="auto-start-reverse"><circle cx="4" cy="4" r="2" class="bg_filled"></circle></marker><marker id="big_open_circle" viewBox="0 0 8 8" refX="4" refY="4" markerWidth="7" markerHeight="7" orient="auto-start-reverse"><circle cx="4" cy="4" r="3" class="bg_filled"></circle></marker></defs><rect class="backdrop" x="0" y="0" width="1928" height="928"></rect><rect x="4" y="280" width="184" height="80" class="solid nofill" rx="0"></rect><text x="42" y="316" >NASDAQ</text><text x="98" y="316" >ITCH</text><text x="26" y="332" >Re</text><line x1="40" y1="328" x2="48" y2="328" class="solid"></line><text x="50" y="332" >request</text><text x="114" y="332" >server</text><rect x="12" y="520" width="184" height="64" class="solid nofill" rx="0"></rect><text x="34" y="556" >NASDAQ</text><text x="90" y="556" >OUCH</text><text x="130" y="556" >server</text><rect x="652" y="520" width="64" height="64" class="solid nofill" rx="0"></rect><text x="674" y="556" >TCP</text><rect x="836" y="520" width="152" height="64" class="solid nofill" rx="0"></rect><text x="858" y="556" >SoupBinTCP</text><text x="946" y="556" >3.0</text><rect x="1156" y="520" width="112" height="64" class="solid nofill" rx="0"></rect><text x="1178" y="556" >OUCH</text><text x="1218" y="556" >5.0</text><rect x="12" y="760" width="184" height="80" class="solid nofill" rx="0"></rect><text x="50" y="796" >NASDAQ</text><text x="106" y="796" >GLIMPSE</text><text x="82" y="812" >server</text><rect x="652" y="776" width="64" height="64" class="solid nofill" rx="0"></rect><text x="674" y="812" >TCP</text><text x="1194" y="28" >FPGA</text><text x="362" y="92" >UDP</text><text x="394" y="92" >multicast</text><text x="770" y="92" >UDP</text><text x="802" y="92" >packet</text><text x="994" y="92" >Mold</text><text x="1034" y="92" >messages</text><text x="1322" y="92" >ITCH</text><text x="1362" y="92" >packets</text><polygon points="464,100 472,104 464,108" class="filled"></polygon><polygon points="600,100 608,104 600,108" class="filled"></polygon><polygon points="848,100 856,104 848,108" class="filled"></polygon><polygon points="1104,100 1112,104 1104,108" class="filled"></polygon><polygon points="1424,100 1432,104 1424,108" class="filled"></polygon><polygon points="1696,100 1704,104 1696,108" class="filled"></polygon><polygon points="200,292 192,296 200,300" class="filled"></polygon><text x="762" y="300" >Mold</text><text x="802" y="300" >missing</text><text x="866" y="300" >message</text><text x="402" y="316" >UDP</text><text x="794" y="316" >replay</text><text x="850" y="316" >request</text><polygon points="200,324 192,328 200,332" class="filled"></polygon><polygon points="560,324 552,328 560,332" class="filled"></polygon><polygon points="768,324 760,328 768,332" class="filled"></polygon><text x="410" y="540" >TCP</text><polygon points="208,548 200,552 208,556" class="filled"></polygon><line x1="208" y1="552" x2="464" y2="552" class="solid"></line><polygon points="464,548 472,552 464,556" class="filled"></polygon><polygon points="560,548 552,552 560,556" class="filled"></polygon><line x1="560" y1="552" x2="640" y2="552" class="solid"></line><polygon points="640,548 648,552 640,556" class="filled"></polygon><text x="410" y="796" >TCP</text><polygon points="208,804 200,808 208,812" class="filled"></polygon><line x1="208" y1="808" x2="464" y2="808" class="solid"></line><polygon points="464,804 472,808 464,812" class="filled"></polygon><polygon points="560,804 552,808 560,812" class="filled"></polygon><line x1="560" y1="808" x2="640" y2="808" class="solid"></line><polygon points="640,804 648,808 640,812" class="filled"></polygon><text x="1738" y="60" >Trading</text><text x="1802" y="60" >algorithm</text><polygon points="1280,548 1272,552 1280,556" class="filled"></polygon><line x1="1280" y1="552" x2="1704" y2="552" class="solid"></line><polygon points="1704,548 1712,552 1704,556" class="filled"></polygon><text x="1186" y="716" >Enable</text><text x="1242" y="716" >GLIMPSE</text><text x="1306" y="716" >server</text><text x="1362" y="716" >connection</text><polygon points="904,756 912,756 908,768" class="filled"></polygon><polygon points="728,804 720,808 728,812" class="filled"></polygon><line x1="728" y1="808" x2="824" y2="808" class="solid"></line><polygon points="824,804 832,808 824,812" class="filled"></polygon><polygon points="1144,804 1152,808 1144,812" class="filled"></polygon><polygon points="1416,804 1424,808 1416,812" class="filled"></polygon><polygon points="1704,804 1712,808 1704,812" class="filled"></polygon><polygon points="728,548 720,552 728,556" class="filled"></polygon><line x1="728" y1="552" x2="824" y2="552" class="solid"></line><polygon points="824,548 832,552 824,556" class="filled"></polygon><polygon points="1000,548 992,552 1000,556" class="filled"></polygon><line x1="1000" y1="552" x2="1144" y2="552" class="solid"></line><polygon points="1144,548 1152,552 1144,556" class="filled"></polygon><text x="26" y="108" >NASDAQ</text><text x="82" y="108" >ITCH</text><text x="122" y="108" >server</text><text x="498" y="108" >Eth0</text><text x="634" y="108" >UDP</text><path d="M 672,96 A 16,16 0,0,0 672,112" class="nofill"></path><text x="674" y="108" >rx</text><text x="698" y="108" >only</text><path d="M 728,96 A 16,16 0,0,1 728,112" class="nofill"></path><text x="882" y="108" >MoldUDP64</text><text x="1138" y="108" >Totalview</text><text x="1218" y="108" >ITCH</text><text x="1258" y="108" >5.0</text><text x="1458" y="108" >ITCH</text><text x="1498" y="108" >packet</text><text x="1554" y="108" >filter</text><text x="1730" y="108" >data</text><text x="1770" y="108" >feed</text><text x="634" y="332" >UDP</text><path d="M 672,320 A 16,16 0,0,0 672,336" class="nofill"></path><text x="674" y="332" >tx</text><text x="698" y="332" >only</text><path d="M 728,320 A 16,16 0,0,1 728,336" class="nofill"></path><text x="498" y="556" >Eth1</text><text x="1730" y="556" >orders</text><text x="498" y="812" >Eth2</text><text x="858" y="812" >SoupBinTCP</text><text x="946" y="812" >3.0</text><text x="1186" y="812" >GLIMPSE</text><text x="1450" y="812" >GLIMSE</text><text x="1506" y="812" >packet</text><text x="1562" y="812" >filter</text><text x="1730" y="812" >snapshot</text><g><line x1="516" y1="8" x2="1916" y2="8" class="solid"></line><line x1="516" y1="8" x2="516" y2="72" class="solid"></line><line x1="1916" y1="8" x2="1916" y2="904" class="solid"></line><line x1="476" y1="72" x2="548" y2="72" class="solid"></line><line x1="476" y1="72" x2="476" y2="360" class="solid"></line><line x1="548" y1="72" x2="548" y2="360" class="solid"></line><line x1="548" y1="104" x2="600" y2="104" class="solid"></line><line x1="200" y1="328" x2="476" y2="328" class="solid"></line><line x1="476" y1="360" x2="548" y2="360" class="solid"></line><line x1="516" y1="360" x2="516" y2="520" class="solid"></line><line x1="476" y1="520" x2="548" y2="520" class="solid"></line><line x1="476" y1="520" x2="476" y2="584" class="solid"></line><line x1="548" y1="520" x2="548" y2="584" class="solid"></line><line x1="476" y1="584" x2="548" y2="584" class="solid"></line><line x1="516" y1="584" x2="516" y2="776" class="solid"></line><line x1="476" y1="776" x2="548" y2="776" class="solid"></line><line x1="476" y1="776" x2="476" y2="840" class="solid"></line><line x1="548" y1="776" x2="548" y2="840" class="solid"></line><line x1="476" y1="840" x2="548" y2="840" class="solid"></line><line x1="516" y1="840" x2="516" y2="904" class="solid"></line><line x1="516" y1="904" x2="1916" y2="904" class="solid"></line></g><g><line x1="4" y1="72" x2="188" y2="72" class="solid"></line><line x1="4" y1="72" x2="4" y2="136" class="solid"></line><line x1="188" y1="72" x2="188" y2="136" class="solid"></line><line x1="188" y1="104" x2="464" y2="104" class="solid"></line><line x1="276" y1="104" x2="276" y2="296" class="solid"></line><line x1="4" y1="136" x2="188" y2="136" class="solid"></line><line x1="200" y1="296" x2="276" y2="296" class="solid"></line></g><g><line x1="612" y1="72" x2="756" y2="72" class="solid"></line><line x1="612" y1="72" x2="612" y2="136" class="solid"></line><line x1="756" y1="72" x2="756" y2="136" class="solid"></line><line x1="756" y1="104" x2="848" y2="104" class="solid"></line><line x1="612" y1="136" x2="756" y2="136" class="solid"></line></g><g><line x1="860" y1="72" x2="972" y2="72" class="solid"></line><line x1="860" y1="72" x2="860" y2="136" class="solid"></line><line x1="972" y1="72" x2="972" y2="136" class="solid"></line><line x1="972" y1="104" x2="1104" y2="104" class="solid"></line><line x1="860" y1="136" x2="972" y2="136" class="solid"></line><line x1="924" y1="136" x2="924" y2="328" class="solid"></line><line x1="768" y1="328" x2="924" y2="328" class="solid"></line></g><g><line x1="1116" y1="72" x2="1300" y2="72" class="solid"></line><line x1="1116" y1="72" x2="1116" y2="136" class="solid"></line><line x1="1300" y1="72" x2="1300" y2="136" class="solid"></line><line x1="1300" y1="104" x2="1424" y2="104" class="solid"></line><line x1="1116" y1="136" x2="1300" y2="136" class="solid"></line></g><g><line x1="1436" y1="72" x2="1620" y2="72" class="solid"></line><line x1="1436" y1="72" x2="1436" y2="136" class="solid"></line><line x1="1620" y1="72" x2="1620" y2="136" class="solid"></line><line x1="1620" y1="104" x2="1696" y2="104" class="solid"></line><line x1="1436" y1="136" x2="1620" y2="136" class="solid"></line></g><g><line x1="612" y1="296" x2="756" y2="296" class="solid"></line><line x1="612" y1="296" x2="612" y2="360" class="solid"></line><line x1="756" y1="296" x2="756" y2="360" class="solid"></line><line x1="560" y1="328" x2="612" y2="328" class="solid"></line><line x1="612" y1="360" x2="756" y2="360" class="solid"></line></g><g><line x1="1716" y1="40" x2="1900" y2="40" class="solid"></line><line x1="1716" y1="40" x2="1716" y2="872" class="solid"></line><line x1="1900" y1="40" x2="1900" y2="872" class="solid"></line><line x1="908" y1="728" x2="1716" y2="728" class="solid"></line><line x1="908" y1="728" x2="908" y2="756" class="solid"></line><line x1="1716" y1="872" x2="1900" y2="872" class="solid"></line></g><g><line x1="836" y1="776" x2="988" y2="776" class="solid"></line><line x1="836" y1="776" x2="836" y2="840" class="solid"></line><line x1="988" y1="776" x2="988" y2="840" class="solid"></line><line x1="988" y1="808" x2="1144" y2="808" class="solid"></line><line x1="836" y1="840" x2="988" y2="840" class="solid"></line></g><g><line x1="1156" y1="776" x2="1268" y2="776" class="solid"></line><line x1="1156" y1="776" x2="1156" y2="840" class="solid"></line><line x1="1268" y1="776" x2="1268" y2="840" class="solid"></line><line x1="1268" y1="808" x2="1416" y2="808" class="solid"></line><line x1="1156" y1="840" x2="1268" y2="840" class="solid"></line></g><g><line x1="1428" y1="776" x2="1628" y2="776" class="solid"></line><line x1="1428" y1="776" x2="1428" y2="840" class="solid"></line><line x1="1628" y1="776" x2="1628" y2="840" class="solid"></line><line x1="1628" y1="808" x2="1704" y2="808" class="solid"></line><line x1="1428" y1="840" x2="1628" y2="840" class="solid"></line></g></svg>