<svg xmlns="http://www.w3.org/2000/svg" width="1400" height="544" class="svgbob"><style>.svgbob line, .svgbob path, .svgbob circle, .svgbob rect, .svgbob polygon {
    stroke: black;
    stroke-width: 2;
    stroke-opacity: 1;
    fill-opacity: 1;
    stroke-linecap: round;
    stroke-linejoin: miter;
}
.svgbob text {
    white-space: pre;
    fill: black;
    font-family: Iosevka Fixed, monospace;
    font-size: 14px;
}
.svgbob rect.backdrop {
    stroke: none;
    fill: white;
}
.svgbob .broken {
    stroke-dasharray: 8;
}
.svgbob .filled {
    fill: black;
}
.svgbob .bg_filled {
    fill: white;
    stroke-width: 1;
}
.svgbob .nofill {
    fill: white;
}
.svgbob .end_marked_arrow {
    marker-end: url(#arrow);
}
.svgbob .start_marked_arrow {
    marker-start: url(#arrow);
}
.svgbob .end_marked_diamond {
    marker-end: url(#diamond);
}
.svgbob .start_marked_diamond {
    marker-start: url(#diamond);
}
.svgbob .end_marked_circle {
    marker-end: url(#circle);
}
.svgbob .start_marked_circle {
    marker-start: url(#circle);
}
.svgbob .end_marked_open_circle {
    marker-end: url(#open_circle);
}
.svgbob .start_marked_open_circle {
    marker-start: url(#open_circle);
}
.svgbob .end_marked_big_open_circle {
    marker-end: url(#big_open_circle);
}
.svgbob .start_marked_big_open_circle {
    marker-start: url(#big_open_circle);
}<!--separator--></style><defs><marker id="arrow" viewBox="-2 -2 8 8" refX="4" refY="2" markerWidth="7" markerHeight="7" orient="auto-start-reverse"><polygon points="0,0 0,4 4,2 0,0"></polygon></marker><marker id="diamond" viewBox="-2 -2 8 8" refX="4" refY="2" markerWidth="7" markerHeight="7" orient="auto-start-reverse"><polygon points="0,2 2,0 4,2 2,4 0,2"></polygon></marker><marker id="circle" viewBox="0 0 8 8" refX="4" refY="4" markerWidth="7" markerHeight="7" orient="auto-start-reverse"><circle cx="4" cy="4" r="2" class="filled"></circle></marker><marker id="open_circle" viewBox="0 0 8 8" refX="4" refY="4" markerWidth="7" markerHeight="7" orient="auto-start-reverse"><circle cx="4" cy="4" r="2" class="bg_filled"></circle></marker><marker id="big_open_circle" viewBox="0 0 8 8" refX="4" refY="4" markerWidth="7" markerHeight="7" orient="auto-start-reverse"><circle cx="4" cy="4" r="3" class="bg_filled"></circle></marker></defs><rect class="backdrop" x="0" y="0" width="1400" height="544"></rect><rect x="4" y="56" width="168" height="64" class="solid nofill" rx="0"></rect><line x1="172" y1="80" x2="172" y2="96" class="solid"></line><text x="18" y="92" >NASDAQ</text><text x="74" y="92" >ITCH</text><text x="114" y="92" >server</text><rect x="356" y="56" width="72" height="64" class="solid nofill" rx="0"></rect><text x="370" y="92" >PHY</text><text x="402" y="92" >rx</text><rect x="564" y="168" width="80" height="64" class="solid nofill" rx="0"></rect><text x="578" y="204" >IPV4</text><text x="618" y="204" >tx</text><rect x="676" y="168" width="72" height="64" class="solid nofill" rx="0"></rect><text x="690" y="204" >UDP</text><text x="722" y="204" >rx</text><rect x="4" y="280" width="168" height="64" class="solid nofill" rx="0"></rect><text x="18" y="316" >NASDAQ</text><text x="74" y="316" >OUCH</text><text x="114" y="316" >server</text><rect x="356" y="280" width="48" height="64" class="solid nofill" rx="0"></rect><text x="370" y="316" >PHY</text><rect x="460" y="280" width="48" height="64" class="solid nofill" rx="0"></rect><text x="474" y="316" >MAC</text><rect x="564" y="280" width="56" height="64" class="solid nofill" rx="0"></rect><text x="578" y="316" >IPV4</text><rect x="676" y="280" width="48" height="64" class="solid nofill" rx="0"></rect><text x="690" y="316" >TCP</text><rect x="780" y="280" width="136" height="64" class="solid nofill" rx="0"></rect><text x="794" y="316" >SoupBinTCP</text><text x="882" y="316" >3.0</text><rect x="4" y="424" width="168" height="80" class="solid nofill" rx="0"></rect><text x="34" y="460" >NASDAQ</text><text x="90" y="460" >GLIMPSE</text><text x="66" y="476" >server</text><rect x="356" y="424" width="48" height="64" class="solid nofill" rx="0"></rect><text x="370" y="460" >PHY</text><rect x="460" y="424" width="48" height="64" class="solid nofill" rx="0"></rect><text x="474" y="460" >MAC</text><rect x="564" y="424" width="56" height="64" class="solid nofill" rx="0"></rect><text x="578" y="460" >IPV4</text><rect x="676" y="424" width="48" height="64" class="solid nofill" rx="0"></rect><text x="690" y="460" >TCP</text><rect x="780" y="424" width="152" height="64" class="solid nofill" rx="0"></rect><text x="802" y="460" >SoupBinTCP</text><text x="890" y="460" >3.0</text><rect x="964" y="424" width="112" height="64" class="solid nofill" rx="0"></rect><text x="978" y="460" >GLIMPSE</text><text x="1042" y="460" >5.0</text><rect x="1108" y="424" width="72" height="64" class="solid nofill" rx="0"></rect><text x="1122" y="460" >Filter</text><text x="770" y="28" >FPGA</text><text x="186" y="76" >multicast</text><line x1="172" y1="88" x2="260" y2="88" class="solid end_marked_circle"></line><line x1="256" y1="88" x2="272" y2="88" class="solid"></line><polygon points="272,84 280,88 272,92" class="filled"></polygon><polygon points="344,84 352,88 344,92" class="filled"></polygon><text x="186" y="156" >unicast</text><text x="290" y="156" >Eth0</text><text x="218" y="188" >unicast</text><polygon points="184,196 176,200 184,204" class="filled"></polygon><polygon points="336,196 328,200 336,204" class="filled"></polygon><polygon points="440,196 432,200 440,204" class="filled"></polygon><polygon points="544,196 536,200 544,204" class="filled"></polygon><line x1="544" y1="200" x2="560" y2="200" class="solid"></line><polygon points="184,308 176,312 184,316" class="filled"></polygon><line x1="184" y1="312" x2="272" y2="312" class="solid"></line><polygon points="272,308 280,312 272,316" class="filled"></polygon><text x="290" y="316" >Eth1</text><polygon points="336,308 328,312 336,316" class="filled"></polygon><line x1="336" y1="312" x2="344" y2="312" class="solid"></line><polygon points="344,308 352,312 344,316" class="filled"></polygon><polygon points="184,452 176,456 184,460" class="filled"></polygon><line x1="184" y1="456" x2="272" y2="456" class="solid"></line><polygon points="272,452 280,456 272,460" class="filled"></polygon><text x="290" y="460" >Eth2</text><polygon points="336,452 328,456 336,460" class="filled"></polygon><line x1="336" y1="456" x2="344" y2="456" class="solid"></line><polygon points="344,452 352,456 344,460" class="filled"></polygon><text x="1226" y="60" >Trading</text><text x="1290" y="60" >algorithm</text><line x1="432" y1="88" x2="448" y2="88" class="solid"></line><polygon points="448,84 456,88 448,92" class="filled"></polygon><polygon points="552,84 560,88 552,92" class="filled"></polygon><polygon points="664,84 672,88 664,92" class="filled"></polygon><polygon points="768,84 776,88 768,92" class="filled"></polygon><polygon points="896,84 904,88 896,92" class="filled"></polygon><polygon points="1096,84 1104,88 1096,92" class="filled"></polygon><polygon points="1200,84 1208,88 1200,92" class="filled"></polygon><polygon points="760,196 752,200 760,204" class="filled"></polygon><polygon points="1048,292 1040,296 1048,300" class="filled"></polygon><polygon points="928,308 920,312 928,316" class="filled"></polygon><line x1="928" y1="312" x2="936" y2="312" class="solid"></line><polygon points="936,308 944,312 936,316" class="filled"></polygon><polygon points="1200,324 1208,328 1200,332" class="filled"></polygon><text x="866" y="380" >Open</text><text x="906" y="380" >GLIMPSE</text><text x="970" y="380" >server</text><text x="1026" y="380" >connection</text><polygon points="856,404 864,404 860,416" class="filled"></polygon><line x1="1184" y1="456" x2="1200" y2="456" class="solid"></line><polygon points="1200,452 1208,456 1200,460" class="filled"></polygon><polygon points="656,196 648,200 656,204" class="filled"></polygon><line x1="656" y1="200" x2="672" y2="200" class="solid"></line><polygon points="416,308 408,312 416,316" class="filled"></polygon><line x1="416" y1="312" x2="448" y2="312" class="solid"></line><polygon points="448,308 456,312 448,316" class="filled"></polygon><polygon points="520,308 512,312 520,316" class="filled"></polygon><line x1="520" y1="312" x2="552" y2="312" class="solid"></line><polygon points="552,308 560,312 552,316" class="filled"></polygon><polygon points="632,308 624,312 632,316" class="filled"></polygon><line x1="632" y1="312" x2="664" y2="312" class="solid"></line><polygon points="664,308 672,312 664,316" class="filled"></polygon><polygon points="736,308 728,312 736,316" class="filled"></polygon><line x1="736" y1="312" x2="768" y2="312" class="solid"></line><polygon points="768,308 776,312 768,316" class="filled"></polygon><polygon points="416,452 408,456 416,460" class="filled"></polygon><line x1="416" y1="456" x2="448" y2="456" class="solid"></line><polygon points="448,452 456,456 448,460" class="filled"></polygon><polygon points="520,452 512,456 520,460" class="filled"></polygon><line x1="520" y1="456" x2="552" y2="456" class="solid"></line><polygon points="552,452 560,456 552,460" class="filled"></polygon><polygon points="632,452 624,456 632,460" class="filled"></polygon><line x1="632" y1="456" x2="664" y2="456" class="solid"></line><polygon points="664,452 672,456 664,460" class="filled"></polygon><polygon points="736,452 728,456 736,460" class="filled"></polygon><line x1="736" y1="456" x2="768" y2="456" class="solid"></line><polygon points="768,452 776,456 768,460" class="filled"></polygon><line x1="936" y1="456" x2="952" y2="456" class="solid"></line><polygon points="952,452 960,456 952,460" class="filled"></polygon><line x1="1080" y1="456" x2="1096" y2="456" class="solid"></line><polygon points="1096,452 1104,456 1096,460" class="filled"></polygon><text x="298" y="92" >rx</text><text x="474" y="92" >MAC</text><text x="506" y="92" >rx</text><text x="578" y="92" >IPV4</text><text x="618" y="92" >rx</text><text x="690" y="92" >UDP</text><text x="722" y="92" >rx</text><text x="794" y="92" >MoldUDP64</text><text x="922" y="92" >Totalview</text><text x="1002" y="92" >ITCH</text><text x="1042" y="92" >5.0</text><text x="1122" y="92" >Filter</text><text x="1226" y="92" >data</text><text x="1266" y="92" >feed</text><text x="850" y="156" >Mold</text><text x="890" y="156" >missing</text><text x="954" y="156" >message</text><text x="882" y="172" >replay</text><text x="938" y="172" >request</text><text x="42" y="188" >NASDAQ</text><text x="98" y="188" >ITCH</text><text x="26" y="204" >Re</text><line x1="40" y1="200" x2="48" y2="200" class="solid"></line><text x="50" y="204" >request</text><text x="114" y="204" >server</text><text x="298" y="204" >tx</text><text x="370" y="204" >PHY</text><text x="402" y="204" >tx</text><text x="474" y="204" >MAC</text><text x="506" y="204" >tx</text><text x="1226" y="300" >orders</text><text x="962" y="316" >OUCH</text><text x="1002" y="316" >5.0</text><text x="1226" y="332" >orders</text><text x="1282" y="332" >ack</text><text x="1226" y="396" >request</text><text x="1290" y="396" >snapshot</text><text x="1226" y="460" >snapshot</text><g><line x1="308" y1="8" x2="1388" y2="8" class="solid"></line><line x1="308" y1="8" x2="308" y2="56" class="solid"></line><line x1="1388" y1="8" x2="1388" y2="520" class="solid"></line><line x1="284" y1="56" x2="324" y2="56" class="solid"></line><line x1="284" y1="56" x2="284" y2="232" class="solid"></line><line x1="324" y1="56" x2="324" y2="232" class="solid"></line><line x1="324" y1="88" x2="344" y2="88" class="solid"></line><line x1="184" y1="200" x2="284" y2="200" class="solid"></line><line x1="284" y1="232" x2="324" y2="232" class="solid"></line><line x1="308" y1="232" x2="308" y2="280" class="solid"></line><line x1="284" y1="280" x2="324" y2="280" class="solid"></line><line x1="284" y1="280" x2="284" y2="344" class="solid"></line><line x1="324" y1="280" x2="324" y2="344" class="solid"></line><line x1="284" y1="344" x2="324" y2="344" class="solid"></line><line x1="308" y1="344" x2="308" y2="424" class="solid"></line><line x1="284" y1="424" x2="324" y2="424" class="solid"></line><line x1="284" y1="424" x2="284" y2="488" class="solid"></line><line x1="324" y1="424" x2="324" y2="488" class="solid"></line><line x1="284" y1="488" x2="324" y2="488" class="solid"></line><line x1="308" y1="488" x2="308" y2="520" class="solid"></line><line x1="308" y1="520" x2="1388" y2="520" class="solid"></line></g><g><line x1="260" y1="92" x2="260" y2="168" class="solid"></line><line x1="4" y1="152" x2="172" y2="152" class="solid"></line><line x1="4" y1="152" x2="4" y2="232" class="solid"></line><line x1="172" y1="152" x2="172" y2="232" class="solid"></line><line x1="172" y1="168" x2="260" y2="168" class="solid"></line><line x1="4" y1="232" x2="172" y2="232" class="solid"></line></g><g><line x1="356" y1="168" x2="428" y2="168" class="solid"></line><line x1="356" y1="168" x2="356" y2="232" class="solid"></line><line x1="428" y1="168" x2="428" y2="232" class="solid"></line><line x1="336" y1="200" x2="356" y2="200" class="solid"></line><line x1="356" y1="232" x2="428" y2="232" class="solid"></line></g><g><line x1="460" y1="168" x2="532" y2="168" class="solid"></line><line x1="460" y1="168" x2="460" y2="232" class="solid"></line><line x1="532" y1="168" x2="532" y2="232" class="solid"></line><line x1="440" y1="200" x2="460" y2="200" class="solid"></line><line x1="460" y1="232" x2="532" y2="232" class="solid"></line></g><g><line x1="1212" y1="40" x2="1372" y2="40" class="solid"></line><line x1="1212" y1="40" x2="1212" y2="488" class="solid"></line><line x1="1372" y1="40" x2="1372" y2="488" class="solid"></line><line x1="1048" y1="296" x2="1212" y2="296" class="solid"></line><line x1="860" y1="392" x2="1212" y2="392" class="solid"></line><line x1="860" y1="392" x2="860" y2="404" class="solid"></line><line x1="1212" y1="488" x2="1372" y2="488" class="solid"></line></g><g><line x1="460" y1="56" x2="532" y2="56" class="solid"></line><line x1="460" y1="56" x2="460" y2="120" class="solid"></line><line x1="532" y1="56" x2="532" y2="120" class="solid"></line><line x1="532" y1="88" x2="552" y2="88" class="solid"></line><line x1="460" y1="120" x2="532" y2="120" class="solid"></line></g><g><line x1="564" y1="56" x2="644" y2="56" class="solid"></line><line x1="564" y1="56" x2="564" y2="120" class="solid"></line><line x1="644" y1="56" x2="644" y2="120" class="solid"></line><line x1="644" y1="88" x2="664" y2="88" class="solid"></line><line x1="564" y1="120" x2="644" y2="120" class="solid"></line></g><g><line x1="676" y1="56" x2="748" y2="56" class="solid"></line><line x1="676" y1="56" x2="676" y2="120" class="solid"></line><line x1="748" y1="56" x2="748" y2="120" class="solid"></line><line x1="748" y1="88" x2="768" y2="88" class="solid"></line><line x1="676" y1="120" x2="748" y2="120" class="solid"></line></g><g><line x1="780" y1="56" x2="876" y2="56" class="solid"></line><line x1="780" y1="56" x2="780" y2="120" class="solid"></line><line x1="876" y1="56" x2="876" y2="120" class="solid"></line><line x1="876" y1="88" x2="896" y2="88" class="solid"></line><line x1="780" y1="120" x2="876" y2="120" class="solid"></line><line x1="836" y1="120" x2="836" y2="200" class="solid"></line><line x1="760" y1="200" x2="836" y2="200" class="solid"></line></g><g><line x1="908" y1="56" x2="1076" y2="56" class="solid"></line><line x1="908" y1="56" x2="908" y2="120" class="solid"></line><line x1="1076" y1="56" x2="1076" y2="120" class="solid"></line><line x1="1076" y1="88" x2="1096" y2="88" class="solid"></line><line x1="908" y1="120" x2="1076" y2="120" class="solid"></line></g><g><line x1="1108" y1="56" x2="1180" y2="56" class="solid"></line><line x1="1108" y1="56" x2="1108" y2="120" class="solid"></line><line x1="1180" y1="56" x2="1180" y2="120" class="solid"></line><line x1="1180" y1="88" x2="1200" y2="88" class="solid"></line><line x1="1108" y1="120" x2="1180" y2="120" class="solid"></line></g><g><line x1="948" y1="280" x2="1036" y2="280" class="solid"></line><line x1="948" y1="280" x2="948" y2="344" class="solid"></line><line x1="1036" y1="280" x2="1036" y2="344" class="solid"></line><line x1="1036" y1="328" x2="1200" y2="328" class="solid"></line><line x1="948" y1="344" x2="1036" y2="344" class="solid"></line></g></svg>